<svg xmlns="http://www.w3.org/2000/svg" width="84" height="31" fill="none" viewBox="0 0 84 31">
    <path stroke="#6229FF" d="m73.796 18.795.19.266.32-.068 3.936-.832.706-.149-.387-.608a4.3 4.3 0 0 1-.335-.637 2.8 2.8 0 0 1-.099-.791c0-.671.143-1.216.405-1.657q.472-.736 1.156-1.362a24 24 0 0 0 1.532-1.467 7.1 7.1 0 0 0 1.305-1.92c.383-.77.562-1.692.562-2.746 0-1.248-.284-2.355-.872-3.299a5.9 5.9 0 0 0-2.3-2.228C78.938.762 77.84.5 76.635.5c-1.285 0-2.462.26-3.52.789l-.004.002a6.2 6.2 0 0 0-2.502 2.327l-.004.008c-.61 1.031-.902 2.265-.902 3.678v.429l.424.065 4.16.64.576.089v-.583c0-.77.182-1.422.53-1.972l.004-.007c.333-.543.72-.753 1.174-.753.404 0 .627.12.764.288.153.188.272.526.272 1.1 0 .6-.14 1.101-.401 1.523a8.5 8.5 0 0 1-1.112 1.351q-.72.687-1.434 1.5h-.001a8 8 0 0 0-1.229 1.91c-.359.766-.527 1.675-.527 2.708 0 1.268.283 2.349.893 3.203Zm-.509 6.653v.5h5.352v-5.8h-5.352z"/>
    <path fill="#6229FF" d="M55.406 25.448V1.672l4.48-.544v13.088l4.224-6.784h4.512l-4.32 6.848 4.672 10.368-3.968 1.312-3.584-8.128-1.536 2.304v5.312zm-15.256 4.96.769-3.584q.351.16.672.224.352.064.736.064 1.023 0 1.664-.64.672-.64.672-1.888v-.768L40.279 7.752l4.512-.608 2.464 11.616L49.783 7.4h3.904l-4.352 17.824q-.672 2.72-2.304 4.16t-4.32 1.44a8 8 0 0 1-1.376-.096 7.6 7.6 0 0 1-1.184-.32m-9.756-4.544q-2.753 0-4.064-2.496-1.28-2.496-1.28-6.816 0-2.625.576-4.768.576-2.145 1.792-3.392 1.248-1.28 3.2-1.28 1.248 0 2.08.576.832.544 1.312 1.408V1.672l4.48-.544v24.064l-4.096.512v-2.656q-.449 1.28-1.44 2.048-.993.768-2.56.768m1.472-3.456q1.215 0 1.664-1.216.48-1.216.48-3.264v-2.72q0-2.016-.448-3.328t-1.6-1.312q-1.281 0-1.824 1.664-.512 1.632-.512 4.288 0 2.688.512 4.288.543 1.6 1.728 1.6m-26.942 3.04L.413 1.704l4.736-.608 2.656 17.408.16-1.184 2.304-15.744h4.64l2.304 17.28 3.072-17.408h3.936l-4.704 24h-4.8L12.413 8.36 9.949 25.448z"/>
</svg>