<svg xmlns="http://www.w3.org/2000/svg" width="152" height="58" fill="none" viewBox="0 0 152 58">
    <path stroke="#C6FF29" stroke-width="1.825" d="m133.953 35.262.347.486.585-.124 7.184-1.518 1.288-.273-.706-1.11a8 8 0 0 1-.611-1.163c-.116-.393-.181-.87-.181-1.443 0-1.226.26-2.22.739-3.024a12.6 12.6 0 0 1 2.111-2.488 44 44 0 0 0 2.796-2.677 13 13 0 0 0 2.382-3.505c.699-1.404 1.026-3.088 1.026-5.012 0-2.28-.519-4.299-1.592-6.022a10.8 10.8 0 0 0-4.198-4.066c-1.784-.977-3.787-1.456-5.988-1.456-2.346 0-4.493.474-6.424 1.44l-.008.003c-1.905.974-3.431 2.396-4.568 4.25l-.004.006-.004.006c-1.113 1.884-1.645 4.136-1.645 6.715v.783l.774.119 7.593 1.168 1.052.162v-1.064c0-1.407.332-2.596.968-3.6l.007-.012c.608-.991 1.312-1.375 2.142-1.375.739 0 1.145.218 1.395.525.279.343.497.96.497 2.009 0 1.095-.254 2.01-.733 2.78a15.5 15.5 0 0 1-2.03 2.467 44 44 0 0 0-2.618 2.737l-.001.002c-.88 1.005-1.626 2.169-2.243 3.484-.655 1.398-.962 3.057-.962 4.944 0 2.314.517 4.287 1.63 5.846Zm-.929 12.145v.913h9.769V37.732h-9.769z"/>
    <path fill="#C6FF29" d="M100.383 47.407v-43.4l8.178-.994v23.89l7.711-12.382h8.236l-7.886 12.5 8.528 18.926-7.243 2.394-6.542-14.836-2.804 4.205v9.697zM72.537 56.46l1.402-6.541q.642.29 1.227.409.642.117 1.343.116 1.87 0 3.038-1.168 1.226-1.169 1.226-3.446v-1.402l-8.002-29.323 8.236-1.11 4.498 21.204 4.614-20.737h7.127l-7.944 32.536q-1.227 4.965-4.206 7.594-2.98 2.628-7.886 2.628-1.519 0-2.512-.175a14 14 0 0 1-2.16-.584m-17.81-8.295q-5.023 0-7.418-4.556-2.337-4.557-2.337-12.442 0-4.79 1.052-8.703 1.05-3.914 3.271-6.192 2.279-2.337 5.841-2.337 2.279 0 3.797 1.052a7.2 7.2 0 0 1 2.395 2.57V4.006l8.178-.993V46.94l-7.477.934v-4.848q-.817 2.336-2.629 3.738-1.81 1.402-4.673 1.402m2.687-6.308q2.22 0 3.038-2.22.876-2.22.876-5.958v-4.965q0-3.681-.818-6.075t-2.92-2.395q-2.337 0-3.33 3.037-.934 2.98-.934 7.828 0 4.906.934 7.827.993 2.92 3.154 2.92m-49.179 5.55L0 4.065l8.645-1.11 4.848 31.776.292-2.161 4.206-28.739h8.47l4.206 31.543 5.607-31.777h7.185l-8.587 43.81H26.11l-4.205-31.192-4.498 31.192z"/>
</svg>